<?xml version="1.0" encoding="utf-8"?>
<!-- Generator: Adobe Illustrator 28.0.0, SVG Export Plug-In . SVG Version: 6.00 Build 0)  -->
<svg version="1.1" id="レイヤー_1" xmlns="http://www.w3.org/2000/svg" xmlns:xlink="http://www.w3.org/1999/xlink" x="0px"
	 y="0px" viewBox="0 0 599.2 441.6" style="enable-background:new 0 0 599.2 441.6;" xml:space="preserve">
<style type="text/css">
	.st0{fill:#4C2D5E;}
</style>
<g>
	<path class="st0" d="M465.7,93.7H358.1l55,55h35.1c2.7,0,4.9,2.2,4.9,4.9v65.3c0,2.7-2.2,4.9-4.9,4.9l-126.9,0l-49.4-49.4h-75.8
		l104.4,104.4l165.2,0c23.4,0,42.4-19,42.4-42.4V136.1C508.1,112.7,489.1,93.7,465.7,93.7z"/>
	<path class="st0" d="M298.7,93.7l-165.2,0c-23.4,0-42.4,19-42.4,42.4v100.3c0,23.4,19,42.4,42.4,42.4h107.6l-55-55h-35.1
		c-2.7,0-4.9-2.2-4.9-4.9v-65.3c0-2.7,2.2-4.9,4.9-4.9l126.9,0l49.4,49.4h75.8L298.7,93.7z"/>
	<path class="st0" d="M241.1,317.5H109.4c-30,0-54.4-24.4-54.4-54.4V109.4c0-30,24.4-54.4,54.4-54.4h189.3l55-55H109.4
		C49.1,0,0,49.1,0,109.4v153.7c0,60.3,49.1,109.4,109.4,109.4h76.7L241.1,317.5z"/>
	<path class="st0" d="M489.8,0h-76.7l-55,55h131.7c30,0,54.4,24.4,54.4,54.4v153.7c0,30-24.4,54.4-54.4,54.4H300.5l-124,124h77.8
		l69-69h166.5c60.3,0,109.4-49.1,109.4-109.4V109.4C599.2,49.1,550.2,0,489.8,0z"/>
</g>
</svg>
